<svg width="348" height="561" viewBox="0 0 348 561" fill="none" xmlns="http://www.w3.org/2000/svg">
<path d="M2.34418 405.012C24.6497 451.338 55.437 499.561 96.8264 531.11C107.393 539.165 118.942 545.632 130.851 551.461C138.713 555.309 146.838 559.567 155.832 559.326C177.808 558.737 198.176 542.112 209.317 524.36C230.722 490.257 217.98 442.68 210.048 406.271C199.258 356.739 182.827 303.566 152.298 262.219C135.212 239.079 109.42 222.288 83.5911 210.327C77.7361 207.616 69.8453 203.265 63.0867 205.097C53.4898 207.698 47.4049 220.73 43.3279 228.549C24.7361 264.205 21.5841 306.59 36.9352 344.31C51.6171 380.386 91.2672 398.164 125.166 412.044C142.026 418.947 173.77 431.742 188.978 415.034C213.526 388.066 212.442 343.473 205.324 310.503C198.736 279.983 184.758 254.097 166.982 228.594C153.502 209.253 139.301 190.63 119.456 177.531C113.672 173.714 103.525 165.888 96.1104 169.949C83.4817 176.865 76.9889 200.533 73.8146 213.083C61.8449 260.41 71.9089 314.293 99.382 354.469C123.642 389.948 160.13 416.063 200.044 431.393C281 462.486 254.492 321.922 243.644 283.567C235.07 253.254 220.914 224.205 196.704 203.364C185.771 193.953 173.476 186.705 160.666 180.179C147.805 173.627 134.154 166.258 119.444 165.473C94.5174 164.145 79.3774 181.07 69.5347 202.042C56.8144 229.146 57.1781 258.913 74.2036 284.179C99.3216 321.455 139.9 340.769 179.277 359.491C197.407 368.111 228.664 384.394 249.391 373.921C262.922 367.084 268.678 345.145 269.764 331.694C272.6 296.594 256.959 262.782 240.309 232.988C211.353 181.175 179.273 128.348 121.522 105.345C110.282 100.868 105.026 104.828 94.5308 109.139C84.2016 113.382 73.8321 116.69 68.6691 127.238C60.0005 144.949 49.8289 162.313 46.2027 181.897C41.5166 207.206 36.3172 235.031 44.8687 259.987C51.3752 278.974 61.4403 296.928 70.6586 314.68C82.252 337.006 94.024 359.27 106.939 380.867C126.753 414.001 152.33 446.325 186.609 465.334C203.797 474.865 221.122 484.225 238.925 492.568C250.143 497.825 263.794 499.07 274.858 492.707C289.467 484.305 298.173 464.051 304.666 449.479C317.039 421.711 313.414 391.086 304.71 362.698C288.286 309.137 267.361 256.257 223.71 219.023C203.9 202.125 181.468 189.807 157.983 178.866C143.423 172.083 121.029 161.747 107.081 175.023C90.8949 190.43 89.1126 212.333 98.233 231.764C112.139 261.391 139.924 289.259 166.489 307.835C186.151 321.583 209.413 336.402 233.259 341.182C247.426 344.022 265.447 346.888 279.782 343.547C314.398 335.481 331.313 303.161 323.7 268.926C317.234 239.854 304.661 211.233 286.313 187.632C270.911 167.82 252.957 148.16 230.705 136.014C219.313 129.797 203.044 120.399 190.466 128.814C174.863 139.251 178.07 162.527 183.478 177.223C195.354 209.501 218.975 240.577 244.484 263.424C264.813 281.63 288.484 297.784 314.602 306.543C358.898 321.398 342.635 246.52 337.213 226.668C321.994 170.948 292.738 98.9745 232.543 79.0958C221.845 75.5631 202.089 73.1816 200.079 88.9354C198.9 98.1776 205.888 108.324 210.784 115.395C220.949 130.077 234.084 143 248.403 153.623C263.177 164.585 277.032 172.248 295.688 168.931C310.985 166.211 323.979 156.704 333.287 144.525C338.813 137.294 343.66 129.689 345.439 120.603C349.331 100.725 338.319 80.8861 330.112 63.5634C319.942 42.0966 308.963 20.15 293.78 1.71339" stroke="#3502FF" stroke-width="3" stroke-linecap="round"/>
</svg>
