<svg width="93" height="129" viewBox="0 0 93 129" fill="none" xmlns="http://www.w3.org/2000/svg">
<g id="Mask">
<mask id="path-1-outside-1_705_3720" maskUnits="userSpaceOnUse" x="0" y="0" width="93" height="129" fill="black">
<rect fill="white" width="93" height="129"/>
<path fill-rule="evenodd" clip-rule="evenodd" d="M46.4167 12C27.3892 12 12 27.391 12 46.4207C12 72.2363 46.4167 110.345 46.4167 110.345C46.4167 110.345 80.8333 72.2363 80.8333 46.4207C80.8333 27.391 65.4442 12 46.4167 12ZM46.4164 58.7139C39.6314 58.7139 34.1248 53.2066 34.1248 46.4208C34.1248 39.635 39.6314 34.1277 46.4164 34.1277C53.2014 34.1277 58.7081 39.635 58.7081 46.4208C58.7081 53.2066 53.2014 58.7139 46.4164 58.7139Z"/>
</mask>
<path fill-rule="evenodd" clip-rule="evenodd" d="M46.4167 12C27.3892 12 12 27.391 12 46.4207C12 72.2363 46.4167 110.345 46.4167 110.345C46.4167 110.345 80.8333 72.2363 80.8333 46.4207C80.8333 27.391 65.4442 12 46.4167 12ZM46.4164 58.7139C39.6314 58.7139 34.1248 53.2066 34.1248 46.4208C34.1248 39.635 39.6314 34.1277 46.4164 34.1277C53.2014 34.1277 58.7081 39.635 58.7081 46.4208C58.7081 53.2066 53.2014 58.7139 46.4164 58.7139Z" fill="#3502FF"/>
<path d="M46.4167 110.345L37.511 118.388L46.4167 128.249L55.3224 118.388L46.4167 110.345ZM46.4167 0C20.7604 0 0 20.7649 0 46.4207H24C24 34.0171 34.0179 24 46.4167 24V0ZM0 46.4207C0 55.3024 2.89161 64.315 6.42615 72.2055C10.0311 80.2533 14.7318 88.0619 19.2604 94.7748C23.8121 101.522 28.34 107.382 31.7211 111.549C33.417 113.638 34.8377 115.318 35.8461 116.489C36.3506 117.075 36.7528 117.534 37.0358 117.854C37.1773 118.015 37.289 118.14 37.3689 118.23C37.4089 118.274 37.4408 118.31 37.4646 118.336C37.4765 118.35 37.4863 118.361 37.4941 118.369C37.4979 118.373 37.5013 118.377 37.5041 118.38C37.5055 118.382 37.5072 118.384 37.5079 118.385C37.5095 118.386 37.511 118.388 46.4167 110.345C55.3224 102.302 55.3236 102.303 55.3246 102.305C55.3248 102.305 55.3257 102.306 55.3261 102.306C55.3268 102.307 55.3271 102.307 55.3268 102.307C55.3262 102.306 55.3235 102.303 55.3188 102.298C55.3095 102.288 55.2921 102.268 55.267 102.24C55.2166 102.184 55.1351 102.092 55.0245 101.967C54.8033 101.717 54.4662 101.332 54.0296 100.825C53.1558 99.8108 51.8877 98.3119 50.357 96.4256C47.285 92.6401 43.2088 87.3597 39.1563 81.3526C35.0807 75.3114 31.1772 68.7524 28.3291 62.3942C25.4105 55.8787 24 50.4469 24 46.4207H0ZM46.4167 110.345C55.3224 118.388 55.3238 118.386 55.3254 118.385C55.3261 118.384 55.3278 118.382 55.3293 118.38C55.3321 118.377 55.3354 118.373 55.3393 118.369C55.347 118.361 55.3569 118.35 55.3687 118.336C55.3925 118.31 55.4245 118.274 55.4644 118.23C55.5443 118.14 55.6561 118.015 55.7976 117.854C56.0805 117.534 56.4828 117.075 56.9873 116.489C57.9957 115.318 59.4163 113.638 61.1122 111.549C64.4934 107.382 69.0213 101.522 73.5729 94.7748C78.1016 88.0619 82.8022 80.2533 86.4072 72.2055C89.9417 64.315 92.8333 55.3024 92.8333 46.4207H68.8333C68.8333 50.4469 67.4229 55.8787 64.5043 62.3942C61.6561 68.7524 57.7526 75.3114 53.6771 81.3526C49.6246 87.3597 45.5483 92.6401 42.4763 96.4256C40.9457 98.3119 39.6775 99.8108 38.8038 100.825C38.3672 101.332 38.03 101.717 37.8088 101.967C37.6982 102.092 37.6167 102.184 37.5664 102.24C37.5412 102.268 37.5238 102.288 37.5145 102.298C37.5098 102.303 37.5072 102.306 37.5066 102.307C37.5063 102.307 37.5065 102.307 37.5072 102.306C37.5076 102.306 37.5085 102.305 37.5087 102.305C37.5098 102.303 37.511 102.302 46.4167 110.345ZM92.8333 46.4207C92.8333 20.7649 72.0729 0 46.4167 0V24C58.8154 24 68.8333 34.0171 68.8333 46.4207H92.8333ZM46.4164 46.7139C46.357 46.7139 46.3291 46.7042 46.3107 46.6964C46.2843 46.6853 46.2483 46.6635 46.212 46.6273C46.1757 46.591 46.1539 46.5548 46.1425 46.528C46.1346 46.5093 46.1248 46.4809 46.1248 46.4208H22.1248C22.1248 59.8327 33.0027 70.7139 46.4164 70.7139V46.7139ZM46.1248 46.4208C46.1248 46.3607 46.1346 46.3323 46.1425 46.3136C46.1539 46.2868 46.1757 46.2506 46.212 46.2143C46.2483 46.1781 46.2843 46.1563 46.3107 46.1452C46.3291 46.1374 46.357 46.1277 46.4164 46.1277V22.1277C33.0027 22.1277 22.1248 33.0089 22.1248 46.4208H46.1248ZM46.4164 46.1277C46.4759 46.1277 46.5038 46.1374 46.5221 46.1452C46.5485 46.1563 46.5846 46.1781 46.6209 46.2143C46.6571 46.2506 46.679 46.2868 46.6903 46.3136C46.6983 46.3323 46.7081 46.3607 46.7081 46.4208H70.7081C70.7081 33.0089 59.8302 22.1277 46.4164 22.1277V46.1277ZM46.7081 46.4208C46.7081 46.4809 46.6983 46.5093 46.6903 46.528C46.679 46.5548 46.6571 46.591 46.6209 46.6273C46.5846 46.6635 46.5485 46.6853 46.5221 46.6964C46.5038 46.7042 46.4759 46.7139 46.4164 46.7139V70.7139C59.8302 70.7139 70.7081 59.8327 70.7081 46.4208H46.7081Z" fill="#BDFF02" mask="url(#path-1-outside-1_705_3720)"/>
</g>
</svg>
